<svg xmlns="http://www.w3.org/2000/svg" viewBox="836 70 1400 1400" width="40" height="40" fill="none">
  <!-- Head plate -->
  <path d="M 1431.61 310.563 L 1428.88 308.004 C 1429.43 302.977 1441.87 299.559 1446.63 297.505 C 1484.92 280.974 1528.94 270.935 1570.4 280.113 C 1583.53 282.778 1637.43 299.001 1643.17 307.439 C 1642.45 309.47 1642.54 309.343 1640.91 310.742 C 1605.8 341.373 1585.52 380.828 1582.33 427.532 C 1579.43 473.352 1594.92 518.437 1625.35 552.809 C 1660.85 593.188 1704.97 610.503 1757.42 615.16 C 1683.3 674.893 1597.12 705.843 1500.77 696.498 C 1440.47 690.65 1359.9 655.121 1314.87 614.197 C 1366.06 611.922 1409.97 593.014 1444.76 554.823 C 1475.63 520.713 1491.82 475.812 1489.82 429.85 C 1488.6 405.567 1482.01 381.856 1470.54 360.421 C 1458.75 338.738 1449.8 327.387 1431.61 310.563 z" fill="rgb(85,52,215)"/>
  <!-- Left eye -->
  <path d="M 1188.1 354.745 C 1238.2 287.876 1328.39 271.603 1396.19 322.709 C 1427.42 346.321 1447.85 381.498 1452.88 420.326 C 1457.58 457 1447.52 494.04 1424.92 523.301 C 1400.2 554.408 1364.05 574.323 1324.54 578.602 C 1284.45 583.3 1244.16 571.565 1212.85 546.073 C 1199.32 535.08 1190.81 524.503 1181.16 510.486 C 1206.17 523.235 1227.32 528.402 1255.13 519.306 C 1277.39 512.061 1295.81 496.185 1306.27 475.237 C 1316.79 454.251 1318.5 429.93 1311 407.681 C 1303.49 386.04 1287.67 368.283 1267.03 358.337 C 1242.15 346.367 1221.6 347.505 1196.08 355.356 C 1192.5 357.006 1190.16 358.026 1186.38 359.341 L 1185.6 358.474 L 1188.1 354.745 z" fill="rgb(13,224,162)"/>
  <!-- Right eye -->
  <path d="M 1747.63 293.37 C 1761.43 291.679 1780.97 293.151 1794.25 296.121 C 1833.06 304.892 1866.8 328.703 1888.07 362.326 C 1858.6 346.613 1831.29 344.024 1800.59 359.03 C 1779.86 369.139 1764.03 387.135 1756.66 408.996 C 1749.48 430.735 1751.24 454.438 1761.55 474.878 C 1772.4 496.553 1791.68 512.815 1814.87 519.846 C 1842.22 528.346 1864.18 522.618 1888.4 509.778 C 1882.87 518.47 1878.69 523.79 1872.13 531.497 C 1848.22 556.792 1818.36 573.688 1783.55 578.413 C 1744.28 583.845 1704.47 573.337 1673 549.232 C 1643.11 526.248 1623.61 492.305 1618.81 454.909 C 1614.27 417.127 1624.92 379.089 1648.42 349.157 C 1673.52 317.006 1707.28 298.428 1747.63 293.37 z" fill="rgb(13,224,162)"/>
  <!-- Eye details -->
  <path d="M 1169.02 388.515 C 1180.42 390.878 1191.97 396.442 1199.92 405.076 C 1208.25 414.013 1212.66 425.917 1212.15 438.127 C 1211.48 453.501 1204.49 462.793 1193.67 472.638 C 1186.64 477.712 1177.18 480.985 1169.02 484.059 C 1156.6 448.621 1157.87 423.443 1169.02 388.515 z" fill="rgb(13,224,162)"/>
  <path d="M 1896.29 388.989 C 1905.65 387.685 1906.8 405.137 1908.01 411.887 C 1912.57 437.296 1909.11 460.044 1901.66 484.314 C 1891.7 482.225 1887.37 480.605 1878.33 475.977 C 1868.96 469.572 1861.28 460.944 1857.58 450.074 C 1853.78 438.851 1854.74 426.56 1860.23 416.06 C 1868.17 400.725 1880.54 393.838 1896.29 388.989 z" fill="rgb(13,224,162)"/>
  <!-- Arms -->
  <path d="M 1124.08 739.254 C 1140.09 692.455 1164.42 644.882 1195.79 606.522 C 1201.84 599.119 1212.11 587.389 1219.91 582.127 C 1220.59 590.082 1221.18 596.35 1222.54 604.293 C 1234.5 665.261 1276.57 709.685 1326.68 743.512 C 1327.93 744.355 1329.19 745.183 1330.45 745.996 C 1299.94 775.165 1285.32 813.608 1291.6 855.497 C 1292.36 858.436 1292.74 858.025 1291.97 860.451 C 1281.97 859.901 1256.47 847.672 1246.85 843.472 C 1194.49 820.603 1155.41 786.926 1124.08 739.254 z" fill="rgb(85,52,215)"/>
  <path d="M 1852.15 579.11 C 1897.11 621.803 1928.4 681.891 1948.4 740.024 C 1912.04 791.092 1878.14 822.673 1819.9 848.419 C 1809.75 852.903 1792.32 860.54 1781.72 863.397 L 1780.61 862.299 L 1781.39 859.272 C 1789.95 814.741 1774.22 778.971 1743.01 747.434 C 1750.32 742.718 1757.44 737.727 1764.37 732.47 C 1808.25 698.851 1844.15 657.348 1851.66 600.866 C 1852.19 592.787 1852.27 587.132 1852.15 579.11 z" fill="rgb(85,52,215)"/>
  <!-- Eye stalks -->
  <path d="M 1257.57 614.028 C 1258.39 613.772 1259.22 613.52 1260.05 613.275 C 1269.2 610.609 1269.25 607.656 1274.83 615.187 C 1297.21 642.373 1306.3 649.519 1334.71 669.376 C 1328.42 679.954 1324.9 686.809 1321.88 698.793 C 1317.42 695.147 1309.25 688.874 1305.59 684.857 C 1296.88 677.396 1276.42 654.142 1271.48 644.071 C 1264.39 633.063 1261.93 625.886 1257.57 614.028 z" fill="rgb(85,52,215)"/>
  <path d="M 1796.3 614.954 C 1802.52 605.643 1803.94 609.233 1816.29 611.862 C 1810.71 629.918 1807.42 636.815 1796.57 652.632 C 1792.36 658.66 1762.56 696.112 1756.87 692.369 C 1753.62 681.49 1749.12 674.282 1742.85 665.139 C 1767.64 647.3 1777.35 639.406 1795.78 615.612 L 1796.3 614.954 z" fill="rgb(85,52,215)"/>
  <!-- Antennae -->
  <path d="M 1354.91 680.099 C 1357.96 681.895 1360.98 683.624 1364.21 685.073 C 1395.46 700.091 1414.82 708.169 1448.92 716.538 L 1449.04 765.357 C 1440.92 762.234 1419.26 754.285 1412.78 750.405 C 1388.99 740.873 1361.21 725.443 1341.17 709.522 C 1344.56 696.358 1347.17 691.013 1354.91 680.099 z" fill="rgb(85,52,215)"/>
  <path d="M 1719.39 680.574 L 1721.97 679.103 C 1728.62 675.301 1736.91 701.92 1738.3 706.772 C 1719.26 721.397 1694.79 737.606 1672.65 746.972 L 1671.26 747.57 C 1664.04 752.175 1635.34 762.16 1626.03 765.529 C 1625.58 749.168 1625.43 732.801 1625.58 716.435 C 1658.13 708.152 1689.61 696.118 1719.39 680.574 z" fill="rgb(85,52,215)"/>
  <!-- Mouth -->
  <path d="M 1473.81 769.205 C 1473.83 760.448 1473.25 730.628 1474.55 723.794 C 1477.49 722.692 1481.68 723.703 1484.96 724.163 C 1525.89 728.427 1550.5 728.293 1591.07 723.875 C 1594.5 723.332 1597.12 722.602 1599.77 724.106 C 1600.9 734.457 1600.14 757.236 1600.07 768.489 C 1553.91 781.811 1519.71 780.114 1473.81 769.205 z" fill="rgb(85,52,215)"/>
  <!-- Mandibles -->
  <path d="M 1339.77 788.032 C 1341.39 785.871 1346.9 782.574 1349.44 781.398 C 1368.87 772.406 1388.31 774.813 1407.77 781.232 C 1418.83 785.442 1437.54 794.908 1445.52 803.034 C 1474.72 827.074 1493.4 861.543 1497.61 899.129 C 1498.34 905.85 1498.4 913.453 1498.52 920.256 C 1480.16 897.313 1455.94 878.225 1427.97 868.601 C 1430.63 909.544 1456.13 931.695 1491.47 947.931 C 1484.03 950.33 1478.81 951.907 1471.08 953.61 C 1439.46 957.946 1411.73 952.625 1383.68 937.341 C 1346.34 913.81 1314.53 876.471 1318.41 829.118 C 1319.7 813.423 1327.47 798.034 1339.77 788.032 z" fill="rgb(85,52,215)"/>
  <path d="M 1630.42 801.318 C 1651.56 777.898 1708.76 762.869 1734.33 787.335 C 1736.76 789.394 1737.87 790.452 1740 792.842 C 1773.22 838.841 1744.2 897.764 1702.66 927.013 C 1697.74 930.513 1692.59 933.679 1687.25 936.489 C 1665.66 950.511 1632.42 957.056 1606.95 953.618 C 1598.4 951.786 1591.57 949.705 1583.25 947.168 C 1616.92 931.263 1644 910.473 1648.32 870.794 L 1648 868.674 C 1618.52 876.08 1594.39 898.109 1574.09 919.618 C 1576.61 873.687 1593.56 830.594 1630.42 801.318 z" fill="rgb(85,52,215)"/>
  <!-- Legs -->
  <path d="M 1883.02 846.857 C 1894.18 838.612 1904.32 831.015 1914.78 821.88 C 1915.1 871.18 1916.1 949.082 1878.09 986.091 C 1832.49 1030.48 1736.97 1036 1687.35 994.333 C 1686.66 993.756 1685.99 992.443 1685.58 991.668 C 1716.85 969.481 1749.28 930.96 1770.69 899.15 C 1814.65 886.792 1845.03 871.013 1883.02 846.857 z" fill="rgb(85,52,215)"/>
  <path d="M 1157.91 822.812 C 1168.17 830.789 1178.58 838.577 1189.12 846.173 C 1230.94 873.036 1256.58 884.186 1303.17 898.742 C 1318.19 924.477 1336.05 943.741 1357.9 963.92 C 1362.1 967.799 1393.37 993.537 1393.92 994.914 C 1392.45 995.812 1392.59 996.003 1391.04 996.238 C 1327.51 1030.01 1206.81 1033.12 1172.94 954.089 C 1157.68 918.49 1157.55 861.548 1157.91 822.812 z" fill="rgb(85,52,215)"/>
  <!-- Tail + lower body -->
  <path d="M 1450.12 1074.57 C 1489.37 1064.19 1562.14 1061.68 1601.21 1073.34 C 1599.36 1101.09 1612.82 1123.36 1633.22 1141.15 C 1659.06 1160.38 1685.02 1164.07 1716.14 1163.8 C 1684.31 1194.17 1655.65 1213.38 1615.89 1231.61 C 1519.12 1275.99 1424.63 1264.86 1331.29 1216.53 C 1316.5 1208.35 1299.45 1197.93 1286.29 1187.46 C 1324.55 1129.16 1384.73 1094.24 1450.12 1074.57 z" fill="rgb(85,52,215)"/>
  <path d="M 1665.37 1012.75 C 1697.33 1040.57 1746.45 1053.19 1788.24 1050.41 L 1789.28 1050.34 C 1803.51 1049.4 1812.59 1047.47 1826.43 1044.1 C 1801.86 1085.26 1768.41 1118.58 1720.73 1130.63 C 1708.24 1133.88 1695.27 1134.91 1682.43 1133.66 C 1679.25 1133.19 1676.88 1132.39 1673.85 1131.47 C 1662.23 1127.97 1651.58 1121.59 1643.52 1112.45 C 1633.04 1100.51 1627.78 1084.86 1628.91 1069.01 C 1630.36 1046.9 1641.05 1034.85 1656.51 1021.21 C 1659.42 1018.39 1662.37 1015.45 1665.37 1012.75 z" fill="rgb(85,52,215)"/>
  <path d="M 1419.97 1013.91 C 1434.93 1022.19 1453.16 1030.5 1469.05 1039.05 C 1414.62 1048.5 1364.44 1076.97 1320.52 1109.2 C 1312.93 1105.33 1307.58 1101.9 1300.45 1097.31 C 1277.25 1081.63 1259.87 1064.99 1246.11 1040.31 C 1308.05 1052.48 1364.43 1044.79 1419.97 1013.91 z" fill="rgb(85,52,215)"/>
</svg>
